<svg xmlns="http://www.w3.org/2000/svg" fill="none" viewBox="0 0 280 118">
    <path fill="currentColor" d="M38.35 57.84s.04 0 0 0q.06 0 0 0m-37.26-.25c-.04.04 0 .04.04.04q.07-.01.09.04c.78.2 1.6.46 2.34.66.04 0 .04.04.08 0-.86-.2-1.68-.5-2.55-.74m49.2 6.59c-2.27-.38-7.99-.38-11.49-.33q-.28-.12-.57-.3l-4.5-2.1c.26-.24.5-.44.8-.69 2.21.82 5.67 2.02 7.94 2.8.16.04.49-.25.61-.7.13-.45.09-.87-.08-.95 0 0-5.1-1.77-7.04-2.47 1.03-.9 2.1-1.77 3.13-2.67q1.56-1.34 3.13-2.64c.53-.45 1.07-.86 1.6-1.31a50 50 0 0 1 3.3-2.51q.43-.31.86-.58.28-.2.58-.33.18-.11.37-.16c0-.04-.04 0 0-.04 0 0 .04-.05.08-.05 0-.08.04-.2 0-.28-.08 0-.12.04-.2.04v-.04c-.3.16-.58.28-.87.45l-.16.08q-.02-.01-.04.04l-1.24.62c-.37.2-.78.37-1.15.58q-.55.29-1.15.57c-1.53.83-3.01 1.6-4.5 2.43.17-.12.34-.29.5-.37l.58-.33c1.15-.62 2.26-1.27 3.42-1.9q1.15-.6 2.3-1.23c.66-.33 1.36-.7 2.06-1.03.08-.04.2-.12.33-.08q.02-.01.04.04c.04.04.08.04.12.09.04.08.09.24.04.37q-.01.04-.08.08l-.04.04q-.07.05-.08.04l-.58.33-1.07.74-.37.25q-1.06.76-2.06 1.56l-1.36 1.11-.28.25c-1 .82-1.94 1.69-2.93 2.51l-1.93 1.69q2.34-1.97 4.7-3.87-1.93 1.6-3.8 3.25l.5-.37c-.5.5-1.03.95-1.53 1.44q-.6.53-1.15 1.07-.2.13-.33.33l-.04.04.41-.33c.7-.58 1.36-1.2 2.06-1.77l1.65-1.4q.44-.34.82-.7l.04-.04.09-.08 1.56-1.32q1.24-1.04 2.55-2.01l1.32-1 .45-.32q.67-.5 1.4-.87.26-.1.45-.32a1 1 0 0 0 .13-.62q-.05-.32-.29-.45.13.11.2.28t.09.42l-.04.16q-.08.17-.2.29l-.17.12c-.13.08-.2.12-.33.17-.33.16-.66.37-.95.53-.2.12-.41.29-.62.37q.62-.55 1.44-.99.2-.13.37-.2.21-.1.3-.33c.07-.17.03-.37 0-.5-.09-.12-.17-.24-.34-.28q.3-.14.62-.33c.12-.08.29-.17.41-.3l.13-.11a1 1 0 0 0 .16-.3q.07-.12.08-.32-.01-.18-.08-.37a1 1 0 0 0-.16-.29.8.8 0 0 0-.54-.33q-.19-.05-.37-.04c-1.15.12-2.06.5-3 .82.16-.04.4-.16.61-.2l-1.9.74q-.55.25-.98.57.43-.35.87-.78c.24-.24.49-.57.74-.86.12-.13.2-.29.33-.45q.18-.24.24-.54a.6.6 0 0 0 0-.37 1 1 0 0 0-.16-.25q-.08-.11-.2-.16c-.09-.04-.17-.13-.3-.13q-.08-.01-.16.05-.42.07-.7.33l-.25.16c-.66.45-1.2.95-1.77 1.44l-2.6 2.26c-.81.74-1.64 1.44-2.46 2.18q-.06.08-.13.09c-1.15.98-2.3 2.01-3.45 3l-2.6 2.26q.92-.93 1.9-1.8.25-.24.45-.46.23-.25.45-.45c.17-.17.33-.29.46-.45q.25-.24.45-.46 1.85-1.86 3.7-3.66l4.61-4.6c.25-.26.46-.46.66-.7q.14-.13.2-.25.2-.32.21-.62v-.2c0-.17-.12-.3-.2-.42l-.08-.08a.5.5 0 0 0-.33-.13.6.6 0 0 0-.41.05c-.25.08-.42.16-.62.28 0 0-.25.17-.33.25l.29-.25v-.04c.2-.24.28-.57.08-.74-.17-.2-.54-.16-.82.04l-.17.17c-.41.45-.78.86-1.2 1.27-.12.13-.2.25-.36.37l-1.11 1-.75.65c-.24.2-.49.45-.74.66l-1.1.99c-.13.12-.26.2-.38.33.33-.25.62-.46.95-.66-.54.5-1.11.94-1.69 1.44s-1.11.98-1.69 1.44c-1.1.94-2.18 1.93-3.25 2.88l-.04.04c0-.74-.04-2.14-.04-2.22s-.2-.17-.46-.17h-.2l.08-3.25c0-.25-.29-.41-.66-.41h-.16q-.04-.01-.08.04c-.05 0-.05.04-.09.04l-.08.04-.08.04-.04.05s-.04.04-.04.08q.01.04-.05.08v5.84c-.08-.16-.16-.28-.2-.45a.3.3 0 0 1-.08-.16q-.05-.47-.04-.9c0-.3-.05-.63-.05-.91q-.07-.91-.08-1.81c-.08-1.65-.2-3.3-.24-4.98v-.21q-.01-.13.04-.2c.16-1.7.53-5.03.53-5.1 0-.67-.33-1.2-.78-1.24-.45 0-.82.5-.87 1.15 0 .12.13 2.47.21 3.7 0 .09.04.2 0 .3q-.01.26-.08.53-.2-1.35-.45-2.72-.24-1.3-.54-2.6-.12-.7-.5-1.27c.13-.62-.24-1.03-.7-1.1-.4-.1-.73.03-.98.24-.29.2-.54.66-.58.99-.08.45 0 .9.08 1.35.17 1.07.25 2.14.37 3.21q.14.91.21 1.81a435 435 0 0 0-3.33-7.24c-.05 0 0 0 0 0 .4.95.86 1.9 1.27 2.88-.5-.9-.9-1.9-1.36-2.84l-.82.37c.04 0 0 0 0 0l3.58 8.23 1.11 2.6c.04.04.04.12.09.16l-2.84-6.09q1.04 2.28 2.01 4.57l.04.16c-.86-1.85-1.77-3.66-2.63-5.51q.01-.05-.04-.04-.11.04-.17.08c-.57-1.36-1.64-3.95-1.69-4.03-.28-.58-.82-.9-1.27-.74-.5.08-.58.7-.5 1.15q.14.5.33.99c.13.32.25.7.42 1.02a1 1 0 0 1 .08.3c.04.07.04.2.12.28-.25-.33-.57-.5-.82-.41-.33.12-.41.66-.29 1.2-.25-.34-.54-.5-.78-.38-.33.13-.41.7-.17 1.32 0 0 0 .04.04.04.05.04.05.08.09.16l.74 1.86-.58-1-.12-.16q-.2-.19-.46-.08c-.12.08-.24.2-.24.37l.04.25q.07.13.08.2c.37.91.74 1.73 1.11 2.64.74 1.77 1.49 3.5 2.27 5.27.5 1.07.94 2.18 1.44 3.25q.07.1.08.2c-.58-1.2-1.11-2.38-1.69-3.58.7 1.6 1.4 3.25 2.1 4.82q.05.05.04.16l-.28-.08-.3-.08-2.26-1.11c-.53-.3-6.95-3-7.2-3.13-.04 0-.08-.04-.08-.04-.79-.33-1 .4-.91.61-.25-.08-.53-.2-.82-.28-.3-.09-.83-.3-.83-.3-.12-.03-.33.13-.4.38-.05.12-.1.29-.05.37a6 6 0 0 1-.95-.29c-.16-.04-.33-.12-.53-.16l-.58-.13c-.2-.04-.4-.08-.62-.04-.2.04-.45.08-.61.25-.17.16-.17.41-.13.66.04.2.17.4.3.61q.04.1.12.17.06.05.12.16l.16.17c.09.04.13.12.2.16q.14.05.26.17.11.08.28.16c.09.04.21.13.33.17l.37.12.5.16c-.17-.04-.29-.04-.45-.08-.09.37-.25.87-.25.87s6.13 2.63 9.26 3.9l-5.47-1.72q-.94-.28-1.82-.58a26 26 0 0 0-3.9-.9q-.57-.08-1.12-.09c-.16 0-.37-.04-.53-.08l-.54-.08q-.12.01-.25-.04L2 54.18q-.58-.2-1.15-.37c-.09 0-.13-.05-.21-.05H.6c-.25-.04-.5.21-.58.54s.08.66.29.7h.08c.58.08 1.11.12 1.65.2.12 0 .25.09.37.13l1.15.37c-.08.16-.12.37-.16.53-.04.13-.08.3-.13.41 0 .05 0 .05-.04.09l1.24.37 8.73 2.59-.25.74q-1.35-.45-2.72-.95-.67-.25-1.36-.45c-.9-.29-1.9-.66-2.8-.94 0 0-.08-.05-.04 0 .04.04.13.04.17.08.78.29 1.56.53 2.34.82.37.12.79.29 1.16.41a.3.3 0 0 1 .16.08q-.55-.13-1.11-.32c-.74-.21-1.44-.46-2.18-.66l-1.07-.37c-.41-.13-.79-.3-1.2-.42l-1.03-.37a8 8 0 0 0-1.73-.74c-.04 0-.08-.04-.12-.04-.2-.04-.41.13-.5.41-.07.3 0 .54.21.62h.09c.08 0 .08.04.16.04 1.52.41 3 .87 4.49 1.28l.45.12 2.22.78c-.37-.08-.74-.2-1.1-.28.49.12.94.24 1.43.4l.66.25.66.25 2.72.95c.9.33 1.8.61 2.71.94q1.37.45 2.72.95c-2.22 2.02-4.49 4.03-6.5 6.3q-.56.62-1.07 1.31l-.13.17-.29.24s-.49.38-.57.5.04.41.29.57c.24.17.53.21.66.09l.4-.7c.05-.04.09-.13.13-.17l.17-.12.32-.25a1344 1344 0 0 0 8.9-7.16l.08.04q.14.08.29.09-1.06 1.1-2.06 2.26-.24.28-.54.58-.52.55-1.03 1.15l-.49.57c.04 0 .08-.08.12-.08-1.23 1.32-3.78 3.87-3.78 3.87l.2.2a72 72 0 0 1-1.8 1.65l.16.17-.87.7c-.12.12-.04.45.2.74.21.24.46.4.62.37l-1.31 1.27-.2.2c-.13.17-.21.58-.13.83 0 .04.04.17.12.2-.33.3-.66.54-.99.83l-.08.08q-.12.21.12.54c.17.2.42.33.54.24q-.02.14.08.33.2.27.37.2h.04q.05-.02.04-.03 1.73-1.35 3.38-2.72l1.15-.9c-.37.49-.7 1.02-1.07 1.48l-.12.12c-.17.17-.33.29-.45.45q-.47.49-.95.9l-.78.8-.17.11c-.24.3-.24.7 0 .95h.04s.05 0 .05.04q.02-.01.04.04h.45q.02.01.04-.04.02.01.04-.04.02.01.04-.04l.04-.04.05-.04.04-.04v-.09l.04-.04q-.01-.02.04-.04-.01-.02.04-.04s0-.04.04-.04l.04-.04.04-.04.04-.04.05-.05.04-.04.04-.04c0-.04.04-.04.04-.08s.04-.04.04-.08.04-.04.04-.09.04-.04.04-.08l.04-.08.04-.08c0-.04.05-.04.05-.08 0-.05.04-.05.04-.09s.04-.04.04-.08.04-.04.04-.08.04-.04.04-.08.04-.04.04-.09.04-.04.04-.08l.04-.08c0-.04.05-.04.05-.08s.04-.04.04-.08c0-.05.04-.05.04-.09s.04-.04.04-.08.04-.04.04-.08.04-.04.04-.08c0-.05.04-.05.04-.09s.04-.04.04-.08l.04-.08c0-.04.05-.04.05-.08s.04-.04.04-.09l.04-.08.04-.08q.02-.04.04-.08c.12-.17.25-.37.41-.5q.24-.19.46-.45c.45-.45.9-.86 1.35-1.32l1.36-1.31.46-.45c.28-.3.61-.58.9-.87l.45-.45q.47-.44.9-.87l1.37-1.31.2-.2c.21-.21.46-.46.7-.67l.46-.45.24-.2q.75-.64 1.49-1.2c.57-.45 1.15-.95 1.72-1.4q-6.05 6.23-12.06 12.51l-.04.04-.04.04.04-.04c1.11-1.1 2.27-2.22 3.38-3.33l2.1-2.1 1.23-1.27 1.65-1.7c1.11-1.1 2.22-2.25 3.33-3.37l1.6-1.6.1-.08.11.24q.06.13.05.25l.12.62.53 4.69q.14 1.07.33 2.14c.25 1.65 1.4 8.15 1.6 8.56.1.2.3.45.54.45.25.04.54-.25.58-.5.04-.32-.08-.65-.08-.98v-3.21q-.01-.67-.08-1.36-.14-1.35-.33-2.71a32 32 0 0 1-.17-1.9l4.32 8.44q.15.12.58 0c.25-.12.45-.29.41-.41-1.15-2.84-2.3-5.72-3.46-8.52q1.17 1.5 2.27 3.04l.12.21q.07.12.08.25.7 1.66 1.45 3.2a31 31 0 0 1-1.65-3.33c.33.79.62 1.57.95 2.35.33.74.74 1.48 1.15 2.14q.3.5.66.99c.16.2.4.45.61.61.21.17.58.33.95.25q.3-.07.5-.33a.8.8 0 0 0 .16-.62q-.02-.35-.16-.65.34-.14.7-.33.07.01.08-.04c-.46-.95-.95-1.94-1.36-2.88-.45-.95-.95-1.94-1.36-2.89-.45-.94-.9-1.93-1.36-2.88l-1.4-2.84q.27.12.54.17 3.03 6.29 6.13 12.5l-5.8-12.38c2.18.7 4.36 1.44 6.58 2.14l-3.33-1.2q-1.66-.6-3.34-1.14l-.37-.79 2.97.95.41.12q2.16.68 4.32 1.28.44.1.87.29c.57.16 1.1.37 1.69.53q.84.28 1.64.58l1.24.45.29.17h.08c.29 0 .7-.54.9-1.24.25-.78.17-1.52-.12-1.6l-.2-.04c.08-.33.03-.62-.17-.66 0 0-4.7-1.52-6.96-2.22l-.99-.3c-1.27-.4-2.59-.82-3.87-1.19h.42c.24.09 2.05.66 2.59.83l2.76.86c.86.29 2.63.87 2.67.87h.09a.4.4 0 0 0 .2-.25q.06-.25 0-.37s0-.04-.04-.04h-.04l-.74-.25q-1.3-.43-2.6-.9-.86-.33-1.72-.58l-.62-.2c6.13-.17 12.18-.58 9.88-1m-37.42-3.26c-.33-.08-.66-.2-1-.28q.14.01.26.08.23.05.53.16c.08.04.16.04.25.09q-.02-.06-.04-.05m14.65-12.1c0-.12.04-.28.04-.4.04-.21.04-.38.09-.58.08.5.12 1.03.24 1.52q.05.25.04.5l-.37-.79c0-.04-.04-.08-.04-.12zm-.16 1.28.04-.33.5 1.03.08.12v.17q-.01.23.04.53-.32-.62-.62-1.31-.05-.12-.04-.2m-.2-5.3-.2 2.18c.07-.75.2-1.53.27-2.27.05.12 0 .33 0 .5L27 47.7l-.13-.24q-.02-.07-.04-.08-.01-.08.04-.21c.13-.95.25-1.93.33-2.84l-.04.45m-1.66 1.4-.08-.63c.41.83.78 1.65 1.2 2.43 0 .13-.04.3-.04.41-.38-.7-.75-1.48-1.08-2.22m.95 2.87-.04.2q-.39-.78-.7-1.64l-.04-.12c-.04-.08 0-.17-.04-.25.29.62.53 1.24.82 1.81m-1.36-2.92c.13.2.2.45.3.66v.16c-.13-.24-.21-.45-.34-.7.08-.04.04-.08.04-.12m.17-.95q.02.3.04.54c-.12-.2-.2-.45-.33-.7 0-.16-.04-.37-.04-.54q.13.39.33.7m-.46-1.6-.04-.54q.2.38.33.75l.04.4c-.12-.16-.2-.4-.32-.61m.42.58q.37.79.74 1.64h-.04l-.17-.29c-.12-.24-.29-.53-.41-.82a.3.3 0 0 1-.08-.16q.01-.08-.04-.21c.04-.04 0-.12 0-.16m1.31 5.1.17.33-.04.24q-.05-.16-.17-.32.05-.13.04-.25m.13-.54-.04-.08c0-.04 0-.16.04-.2q-.01-.14.04-.21.05.13.16.33c0 .12-.04.29-.04.41a1 1 0 0 1-.16-.25M19.9 35.2c-.05 0-.05-.08-.05-.08 0-.04-.04-.04 0-.08l.05.04.12.33 1.11 2.72q-.62-1.44-1.23-2.93m1.35 1.73-.49-1.07c-.12-.29-.29-.61-.41-.9q.01-.01-.04-.08-.01-.06.04-.05.05.07.04.13.68 1.41 1.32 2.88l1.85 3.99c.12.29.29.58.41.86q.01.07.08.13v.12c0 .12.05.25.05.37zm3.01 1.32q.05.07.04.2l-.04-.49c-.08-.66-.16-1.27-.2-1.93-.05-.2 0-.45.12-.66a.6.6 0 0 1 .5-.29c.32 0 .6.45.73.7q.1.24.2.54c.05.16.1.37.17.53a36 36 0 0 1 1.03 4.65c.13.7.2 1.4.33 2.14q.02.14.04.29c.02.15 0 .12-.04.2l-.37 3.05c-.45-.95-.95-1.98-1.4-2.96q-.07-.12-.08-.2-.05-.15-.04-.34l-.29-2.26q-.2-1.33-.33-2.68.01.31.08.62l.5 4.36-.3-.66-.03-.08v-.16l-.25-2.22a9 9 0 0 1-.37-2.35m-2.1 5.84c.04.09.12.25.12.33q1.17 2.85 2.4 5.68l.32.78c0 .04.04.09.04.13 0 .08 0 .12.04.24-.94-2.38-1.93-4.69-2.88-7.03-.04-.09-.04-.09-.04-.13-.04 0-.04-.04 0 0m1.28 18.85q.11-.14.28-.29.14.04.21.08s0 .05-.04.05c-.08.12-.2.2-.33.33-.04-.05-.12-.05-.2-.09 0-.04.08-.08.08-.08m-.2 0-.05.04q.02-.05.04-.04c.08-.12.2-.2.29-.33-.04.08-.17.2-.29.33m-1.12-18.89s-.04-.04-.04-.08q.05.07.04.08m-.04-.12c0 .04 0 0 0 0m-.04-.04c0-.04 0 0 0 0m0-.09c0 .05 0 0 0 0m-.04-.04c0-.04 0 0 0 0m0 0c0 .05 0 0 0 0m.65 5.64c.33.66.58 1.4.87 2.1l-.5-.99c-.16-.33-.28-.7-.45-1.03l-.86-2.1c.33.66.61 1.32.94 2.02m-.82.62q.25.56.5 1.07.25.56.45 1.11a69 69 0 0 1-1.69-2.96l-.29-.5c-.08-.16-.16-.37-.25-.53-.61-1.48-1.23-2.92-1.8-4.45 0-.04.03.04.03.04q.5 1.01 1 2.02.54 1.05 1.02 2.1.55.99 1.03 2.1m-3.42-14.4q.32.74.62 1.56.04.13.08.2-.29-.9-.65-1.8h.04c.57 1.31 1.15 2.59 1.73 3.95l-.25.12-.62-1.48-.2-.5q-.2-.5-.46-.98a2.3 2.3 0 0 1-.29-1.07m-.24.08 1.68 3.95v.04c0 .04 0 0-.04.04q-.05.01-.04-.04c-.04-.04-.04-.16-.08-.2-.45-1.32-.99-2.56-1.52-3.8m-1 7.57q.06.07.05.08c.12.25.29.5.37.74l.37.9q-.37-.85-.78-1.72m.54.9 1.03 1.9c.04.12.13.2.17.33 1.07 2.59 2.18 5.26 3.37 7.78l.3.61s.03.04 0 .04c-.05 0-.05-.04-.09-.04a225 225 0 0 1-4.78-10.61m.87 11.77c.16.09.37.17.53.25l3.21 1.48-.9.58c-.12-.04-.2-.08-.33-.17l-1.15-.49c-.25-.12-.5-.2-.79-.33a37 37 0 0 1-2.22-1.07 1 1 0 0 1-.53-.08 9 9 0 0 1-1.24-.58c-.04 0-.08-.04-.08-.04l-1.11-.57c-.13-.09-.29-.13-.41-.21q2.28.47 4.44 1.07zm3.46 3.3q-.18-.06-.41-.17l-.33-.12q.04.01.08-.04.36.13.66.33m-7.17-5.89q.05.02.17.04.08.05.16.04.07.02.09.09l.28.24-.9-.4c.08.03.16 0 .2 0m-2.8-.37q.36.2.79.37c.78.33 1.52.7 2.3 1.07l-3.87-.74c-.08 0-.16-.04-.25-.04q-.06-.01-.12-.08l2.68.2s-1.44-.65-3.09-1.35l.37.12.41.12q.43.13.78.33M9.16 50.8l2.06.74q-.12-.01-.29-.08l-.86-.25h.04c-.13-.04-.17-.04-.25-.08-.12 0-.25-.04-.33-.04l-.29-.12q-.06-.06-.12-.05-.17-.08-.41-.16l-.29-.12c.25-.05.54.08.74.16m4.32 5.02c.21.12.5.25.7.41l-1.4-.61q-2.11-.91-4.28-1.82c.08 0 .17.05.3.05l.98.2q.23.14.53.2.2.06.46.05.2-.01.4.04l1.12.74.12.04 2.4.99 2.58 1.2-3.95-1.61q.02.12.04.12m1.65 4.32q.14.01.29.08l.86.25h-.04q-.28-.05-.57-.16c-.21-.04-.37-.13-.54-.17m.58.2q2.18.62 4.36 1.28v.04c-.04.05-.16.13-.2.17-1.4-.54-2.76-.99-4.16-1.48m1.48 2.1c.5.13.99.3 1.52.42l-.08.08q-.76-.24-1.44-.5m2.47 1.24-5.15 4.16c.58-.54 1.11-1.11 1.7-1.65l.28-.29q.14-.11.29-.28l1.1-1.12q.45-.4.87-.82l.3-.25c.2.09.4.13.6.25 0-.04.05-.04 0 0m.33-.29c-.2-.08-.45-.16-.66-.2 0-.04.08-.08.08-.13.25.09.5.13.74.21zm-.45-3.54c-1.94-.61-3.87-1.19-5.8-1.85q3.89 1.17 7.73 2.39c-.04.04-.04.04-.12.04l-.37-.12q-.76-.26-1.44-.46m1.02 2.19c0-.05.05-.05.05-.05l.16-.16.87.25c-.13.08-.21.16-.33.24q-.37-.17-.75-.28m.38 1.68q.1-.11.2-.16l.29.08-.17.2zm-10.1 15.6 1.61-1.36c1.82-1.56 3.59-3.13 5.4-4.7q-.2.31-.46.67-.05.07-.04.08l-.12.12-1.9 1.6.3-.2c-.42.33-.79.7-1.2 1.03-1.23.99-2.51 1.98-3.75 2.96 0-.08.09-.16.17-.2m.8-.45-1.61 1.35-.05.05v-.09c0-.04.05-.04.05-.04q.06-.04.12-.08c.06-.04.08-.04.12-.08q.82-.63 1.65-1.32-.17.1-.29.2m.28-.25c-.04.04 0 0 0 0m3.54-2.63-1.36 1.1-1.81 1.49.2-.17c.25-.16.46-.37.66-.53l.87-.74c.29-.25.58-.54.86-.74q.45-.39.95-.7c-.08.04-.25.16-.37.29m-.04-.09c0-.04.04-.04.08-.08.2-.16.41-.37.66-.53l.66-.54c0 .04-.08.08-.13.12zm1.2.33q.1-.18.28-.37l.08-.12c.04-.04.09-.04.13-.08l.78-.62zm.94-7.4-.12.12s.04-.04.04-.08l.5-.5c.07-.08.2-.16.28-.29q.55-.54 1.11-1.15c.45-.5.9-.94 1.36-1.44l.29-.29c.08-.08.16-.2.29-.28q.2-.25.4-.42c.05-.04.09-.12.13-.12q.01-.01.08.04c-.24.29-.53.58-.78.87l.87-.87.2.08c-.29.33-.57.58-.86.91q-.02.04-.04.08c-.02.04-.05.04-.05.08l-.12.13a65 65 0 0 0-3.58 3.13m5.06-6.47-.29.3q-.04.01-.08-.05.2-.17.37-.29c.04 0 0 .04 0 .04m.04 1.65c0 .04-.04.04-.04.08l-.16.17q-.1-.01-.2-.08c-.05 0 0 0 0-.05q.06-.1.2-.2.1.01.2.08m-.37-.12h.04l-.2.24h-.04q.02-.05.04-.04zm-1.97 7.61q-.08.11-.2.16-.33.25-.58.5l.12-.2c0-.05.04-.05.04-.09l.16-.12q.2-.06.46-.25m2.34-1.52-3.58 2.84q.11-.2.3-.33c.36-.33.77-.7 1.18-1.03q.2-.19.46-.37c.66-.41 1.27-.87 1.9-1.28q-.19.05-.26.17m.37-9.06c-.32-.08-.65-.2-.94-.28-.04 0 .04-.05.04-.05.33.09.66.21.9.33.05-.04.05 0 0 0m.05-2.01s-.09-.04-.13-.04a7 7 0 0 1-.82-.3c.29-.12.62-.28.86-.4.09.16.17.37.25.53q-.01.04-.08.08-.01.07-.08.13m.04 9.91c.12-.12.2-.2.33-.28q.43-.38.94-.74l-.2.2c.78-.66 1.6-1.36 2.39-2.01l.32.12q-1.85 1.35-3.78 2.72m4.4-3.29c-.12.13-.2.25-.33.33l-.33-.12c.13-.12.3-.25.42-.37l.28.08c0 .04-.04.04-.04.08m-.2-14.24-.04-.12v-.33l.78 1.69.04.62c-.25-.62-.54-1.24-.78-1.86m2.96 17.78v.62l-.95-1.85q.06.05.13.16.44.5.82 1.07m-.9-3.04.12.28-.25-.32q.06.05.12.04m-.62-13.83q.1.25.29.58v.2q-.12-.3-.3-.62zm.12 1.23a.3.3 0 0 1-.08-.16v-.2c0-.17 0-.38-.04-.54.04.12.12.29.2.41q.08.08.09.17v.37c0 .04-.09.08-.13.08 0 0 0-.08-.04-.13m.08 13.87c.04 0 .04.04.09.08 0 .05.04.05.08.09q-.01.07.04.08l.12.29a2 2 0 0 1-.33-.54m.79 3.7a9 9 0 0 1-.42-1.1l-.12-.58c.33.57.66 1.27.99 1.9q.06.1.12.28v.66c-.2-.45-.45-.95-.57-1.15M37.69 79l.29.41q.45.55.82 1.11c.13.2.29.37.37.62 0 .04-.04-.04-.04-.04q-.44-.5-.82-.99c-.29-.37-.5-.82-.74-1.23zM33.9 64.05l1.4.37-.04.04c-.45-.12-.9-.29-1.36-.4m.7 2.26-.57-.16-.25-.45q.3.11.62.16c.08.17.16.29.2.45m.09-3s.04 0 0 0c-.46-.12-.91-.29-1.36-.41l-.13-.25q.12.01.17.08c.45.21.9.37 1.32.58m-.95-2.3c-.12.12-.25.2-.37.33a8 8 0 0 0-1.03-.46c-.12-.24-.2-.5-.33-.7q.07-.11.2-.16.95.39 1.9.7zm-.82 1.77-.42-.13.2-.2h.05q.08.13.17.33m-.54-.54-.16.12-.05.05-.12-.33q.13.11.33.16m2.35-2.1c-.66-.2-1.32-.45-1.94-.66q-.04-.02.04-.04c.04 0 .04-.04.09-.04.61.25 1.27.45 1.89.7q-.07.02-.08.04m2.38.66c1.36.45 3.92 1.36 5.32 1.81l.12.04q.06-.01.12.04a.13.13 0 0 1-.16 0q-.07-.02-.09-.04c-1.4-.45-3.95-1.36-5.3-1.85m4.86 1.85.17.04c.12.04.28.13.45.17q.07-.01.08.04c-.53-.2-2.3-.78-2.8-.99l-4.77-1.69q.01-.05.08-.04c1.81.7 4.9 1.81 6.8 2.47m4.28-12.1q-.13.13-.33.25-1.22.93-2.38 1.85a137 137 0 0 0-5.27 4.45c-.83.74-1.7 1.44-2.51 2.18-.05.04-.05.04-.09.04-.66-.2-1.27-.45-1.93-.66q-.01-.02.04-.04l.29-.25 1.03-.9.7-.62c.12-.08.2-.2.33-.29.57-.5 1.19-.99 1.77-1.44l.4-.25c2.56-1.48 5.24-2.88 7.95-4.32m.95-1.27c-.9.5-1.81.94-2.72 1.44-.12.08-.24.12-.37.2l-2.3 1.24q.05-.06.16-.12 1.18-.8 2.43-1.45c.25-.12.45-.24.7-.32.25-.13.45-.21.7-.33q.66-.37 1.4-.66c0-.04 0 0 0 0m1.77-2.97c.08 0 .17-.04.25-.04a1 1 0 0 1 .5 0q.06-.01.07.04h.13c.04 0 .12.09.16.13.13.08.2.2.3.33.03.08.07.12.07.2v.3c-.08.53-.53.77-.94.98-.05 0-.09.04-.09.04q-.06.02-.12.04l-.16.08-.17-.04c.08-.04.2-.08.25-.12q.54-.3.94-.66a.8.8 0 0 0 .21-.53c0-.25-.16-.46-.29-.58-.04-.04-.08-.12-.16-.12l-.25-.09a2 2 0 0 0-.74.05q-.68.13-1.32.32-.84.26-1.64.58c.9-.33 1.97-.7 3-.9m-4.53 2.89.13-.13-.09-.12c.33-.2.7-.45 1.07-.62l1.2-.45 1.9-.62.44-.12q.14.01.21-.04v.04c-.12.12-.33.2-.5.29q-.54.3-1.1.53l-.62.25-.62.24a34 34 0 0 0-2.96 1.48q.2-.19.53-.45.24-.08.41-.28M32.5 56.69c.17-.13.33-.3.46-.38q.9-.78 1.8-1.52.24-.18.46-.37.66-.56 1.32-1.2 1.71-1.57 3.5-3.16.85-.82 1.77-1.56 1.3-1.2 2.67-2.3.5-.4 1-.7a8 8 0 0 1-1.98 2.13l-.46.37c-.53.5-1.1.95-1.69 1.44l-.04.04-.94.83q-.88.72-1.81 1.52c-.58.53-1.2 1.03-1.78 1.52l-.9.78-1.77 1.53c-.87.78-1.81 1.48-2.72 2.26a.4.4 0 0 1-.2-.08v-.04c0-.04.08-.04.08-.09.41-.33.82-.7 1.23-1.02m-.61 3.95-.3-.13.17-.12zm.61-5.35c-.45.45-.86.86-1.27 1.31l-.04.04s0 .05-.05.05c0 0-.04-.05 0-.05l.05-.04q1.35-1.3 2.71-2.67c-.45.41-.94.9-1.4 1.36m-1.89-2.06v-.17c0-.04.08-.08.12-.12q.2-.2.37-.33l1.53-1.36c.16-.16.33-.28.5-.45q.11-.13.24-.2.63-.57 1.27-1.12l-2.01 2.14-1.53 1.6c-.16.17-.33.38-.49.54zm.04 2.39c0-.05.12-.17.2-.21.46-.45.87-.95 1.32-1.4.21-.2.37-.41.58-.62q.44-.5.95-.98c.45-.5.86-.95 1.31-1.4l.21-.2q.76-.8 1.56-1.57.4-.37.79-.78 1.16-1.17 2.38-2.27c.13-.12.3-.24.42-.37l1.23-1.1q.43-.4.87-.7c.28-.26.57-.46.86-.7q-2.3 2.38-4.65 4.76c-.37.42-.78.79-1.15 1.2l-.21.2-.08.13-5.6 5.6c-.2.2-.41.36-.58.57l-.16.16-.04.05c-.13-.21-.2-.25-.2-.37m.41 11.07.46.65a2 2 0 0 1-.46-.16zm2.39 9.17c0 .04-.04-.04-.04-.04q-.27-.5-.54-1.07l-.57-1.11-1.16-2.22-.04-1.15c.83 1.8 1.6 3.7 2.35 5.6m.99-2.8-.74-.98c-.7-1-1.44-1.94-2.14-2.93-.04-.08-.13-.2-.17-.32l-.25-.66-.04-.13v-.58q.36.14.7.21l2.02 2.92q.25 1.24.62 2.47m-.2-6.54c-.05-.04 0-.04 0 0q.19.01.45.08c.04 0 .12.04.12.09q-.28-.06-.58-.17m3.04 10.2c-.54-.65-1.07-1.35-1.6-2.01l-.13-.12-.08-.2q-.37-.94-.66-1.86zm-1.44-7.9-.54-.16-.37-.74.54.16zm13.75 1.45q.06-.06.12-.05.06.14 0 .33 0 .16-.12.25c-.04 0-.17 0-.25-.04-1.15-.29-2.26-.62-3.42-.9l-2.71-.75L36 67.1c-.25-.09-.5-.13-.75-.2h-.04c-.08-.05-.16 0-.16-.1q.41.14.9.26 1.33.37 2.68.7 1.8.46 3.58.94 1.8.45 3.58.95l.87.25q.67.19 1.35.32l.46.13.86.29q.05-.07.04-.13-.02-.1-.16-.08c.2-.04.29-.08.37-.16m-.33.08q.05-.01.04.04c0-.04-.04-.04-.04-.04m-1.85-.58c.12.04.16.04.24.08l1.6.5a1 1 0 0 1-.28-.04.3.3 0 0 1-.16-.09q-.64-.23-1.32-.4.2.05.33.12c-.13 0-.2-.04-.33-.09l-2.3-.7c-.87-.28-1.78-.53-2.64-.82q2.4.69 4.86 1.44m-9.06-2.71q.2.06.33.12.87.31 1.73.58 2.8.85 5.6 1.76-5.5-1.48-11-3.04-.05-.06-.04-.12c-.04-.13-.12-.21-.16-.33.5.12.95.28 1.44.4.66.21 1.36.38 2.1.63m1.65-2.4-.09-.24c2.64-.08 7.13-.2 8.03-.08.9.08-4.82.25-7.94.33M69.76 55c2.72.82 4.53 2.1 4.53 4.94 0 3.37-3.13 5.6-6.46 5.6a9 9 0 0 1-7.17-3.26l2.06-2.43c1.57 1.86 3.25 2.68 5.19 2.68 1.56 0 3-.74 3-2.22 0-1.16-.61-1.77-2.1-2.18l-3-.9c-2.51-.75-4.24-2.03-4.24-4.74 0-2.88 2.6-5.31 6.18-5.31 2.63 0 4.81.99 6.25 2.51l-1.93 2.55a6 6 0 0 0-4.37-2.06c-1.6 0-2.71.87-2.71 2.06 0 1.03.7 1.57 1.93 1.94zm9.71.12h.04a4.1 4.1 0 0 1 3.54-1.85c3.13 0 5.6 2.5 5.6 6.13 0 3.58-2.47 6.13-5.6 6.13-1.64 0-3-.9-3.54-1.9h-.04v6.22h-3.25v-16.3h3.25zm2.97 7.49c1.8 0 3.04-1.52 3.04-3.25 0-1.69-1.23-3.25-3.04-3.25s-3.05 1.52-3.05 3.25 1.2 3.25 3.05 3.25m12.31-4.41 2.76-.2c0-1.2-.82-1.93-2.47-1.93-1.23 0-2.5.57-3.37 1.19l-1.12-2.39a9.4 9.4 0 0 1 5.07-1.6c3.25 0 5.06 1.93 5.06 4.9v7.03h-3.13v-1.48h-.04c-.37.74-1.73 1.77-3.41 1.77-2.31 0-4.08-1.28-4.08-3.58s2.3-3.5 4.73-3.7m2.76 1.94-2.18.2c-1.4.13-2.3.5-2.3 1.45 0 .82.82 1.27 1.77 1.27 1.48 0 2.71-.94 2.71-2.6zm8.89-.87v5.92h-3.25V53.56h3.25v1.97h.04a3.3 3.3 0 0 1 3.79-2.1v3.38q-.51-.2-1.28-.2c-1.52-.05-2.55 1.02-2.55 2.67m13.54 5.92-4.53-5.93v5.93h-3.25V47.46h3.25v11.2l4.53-5.1h3.79l-4.86 5.34 5.02 6.3zm11.45-6.3h4.6v-1.06h-3l2.89-3.1v-1.18h-4.33v1.07h2.76l-2.88 3.08v1.2zm-5.72 0h1.31v-2.92c0-.16.05-.37.09-.53a1 1 0 0 1 .24-.45c.08-.13.25-.25.37-.33.17-.09.33-.13.58-.13q.3 0 .53.13.21.13.3.33.1.19.16.45.05.24.04.5v2.96h1.32v-3.34a2.4 2.4 0 0 0-.5-1.48q-.24-.3-.62-.5a2 2 0 0 0-.9-.16q-.6 0-1.03.3t-.62.69h-.04v-.86h-1.23z"/>
</svg>
