<svg xmlns="http://www.w3.org/2000/svg" fill="none" viewBox="0 0 280 118">
    <path fill="currentColor" d="M42.11 36.66c5.04 0 9.17 21.38 9.17 47.68h7.3c0-28.35-7.35-51.36-16.47-51.36-5.15 0-9.79 6.91-12.79 17.69-3.06-10.78-7.64-17.7-12.85-17.7C7.36 32.98 0 56 0 84.35h7.3c0-26.36 4.08-47.68 9.17-47.68 5.04 0 9.17 19.73 9.17 44h7.3c0-24.32 4.14-44 9.17-44M62.94 82.3h.51c.4 0 .8 0 .8-.5 0-.4-.34-.46-.68-.46h-.63zM62.5 81h1.13q1.02 0 1.02.85c0 .57-.34.8-.79.8l.85 1.3h-.51l-.8-1.3h-.5V84h-.46v-3zm.96 3.68c1.2 0 2.1-.96 2.1-2.2s-.9-2.16-2.1-2.16a2.1 2.1 0 0 0-2.1 2.15c0 1.25.91 2.21 2.1 2.21m0-4.76A2.5 2.5 0 0 1 66 82.47a2.54 2.54 0 0 1-2.55 2.55 2.5 2.5 0 0 1-2.54-2.55 2.54 2.54 0 0 1 2.54-2.55"/>
</svg>
